# Blender v2.82 (sub 7) OBJ File: ''
# www.blender.org
mtllib modelo.mtl
o instance_0_ID5.001
v 0.152400 0.000000 -0.152400
v -0.152400 0.000000 0.152400
v -0.152400 0.000000 -0.152400
v 0.152400 0.000000 0.152400
v 0.152400 0.000000 0.152400
v 0.152400 0.000000 -0.152400
v -0.152400 0.000000 0.152400
v -0.152400 0.000000 -0.152400
v -0.152400 0.000000 0.152400
v 0.152400 0.000000 0.152400
v -0.152400 0.000000 -0.152400
v 0.152400 0.000000 -0.152400
v 0.152400 0.304800 0.152400
v -0.152400 0.000000 0.152400
v 0.152400 0.000000 0.152400
v -0.152400 0.304800 0.152400
v -0.152400 0.304800 0.152400
v 0.152400 0.304800 0.152400
v -0.152400 0.000000 0.152400
v 0.152400 0.000000 0.152400
v 0.152400 0.304800 0.152400
v -0.152400 0.304800 0.152400
v -0.152400 0.304800 -0.152400
v -0.152400 0.000000 0.152400
v -0.152400 0.304800 0.152400
v -0.152400 0.000000 -0.152400
v -0.152400 0.000000 -0.152400
v -0.152400 0.304800 -0.152400
v -0.152400 0.000000 0.152400
v -0.152400 0.304800 0.152400
v -0.152400 0.304800 -0.152400
v -0.152400 0.304800 -0.152400
v 0.152400 0.000000 -0.152400
v -0.152400 0.000000 -0.152400
v 0.152400 0.304800 -0.152400
v 0.152400 0.304800 -0.152400
v -0.152400 0.304800 -0.152400
v 0.152400 0.000000 -0.152400
v -0.152400 0.000000 -0.152400
v 0.152400 0.304800 -0.152400
v 0.152400 0.000000 -0.152400
v 0.152400 0.304800 0.152400
v 0.152400 0.000000 0.152400
v 0.152400 0.304800 -0.152400
v 0.152400 0.304800 -0.152400
v 0.152400 0.000000 -0.152400
v 0.152400 0.304800 0.152400
v 0.152400 0.000000 0.152400
v 0.152400 0.304800 0.152400
v -0.152400 0.304800 -0.152400
v -0.152400 0.304800 0.152400
v 0.152400 0.304800 -0.152400
v 0.152400 0.304800 -0.152400
v 0.152400 0.304800 0.152400
v -0.152400 0.304800 -0.152400
v -0.152400 0.304800 0.152400
vn 0.0000 -1.0000 0.0000
vn 0.0000 0.0000 1.0000
vn -1.0000 0.0000 0.0000
vn 0.0000 0.0000 -1.0000
vn 1.0000 0.0000 0.0000
vn 0.0000 1.0000 0.0000
usemtl (null)
s off
f 1//1 2//1 3//1
f 2//1 1//1 4//1
f 13//2 14//2 15//2
f 14//2 13//2 16//2
f 23//3 24//3 25//3
f 24//3 23//3 26//3
f 32//4 33//4 34//4
f 33//4 32//4 35//4
f 41//5 42//5 43//5
f 42//5 41//5 44//5
f 49//6 50//6 51//6
f 50//6 49//6 52//6
f 5//6 6//6 7//6
f 8//6 7//6 6//6
f 17//4 18//4 19//4
f 20//4 19//4 18//4
f 27//5 28//5 29//5
f 30//5 29//5 28//5
f 36//2 37//2 38//2
f 39//2 38//2 37//2
f 45//3 46//3 47//3
f 48//3 47//3 46//3
f 53//1 54//1 55//1
f 56//1 55//1 54//1
l 9 10
l 11 9
l 12 11
l 10 12
l 10 21
l 22 21
l 9 22
l 31 22
l 11 31
l 40 31
l 12 40
l 21 40
